# xmcd
#
# Track frame offsets: 
#        150
#        18116
#        35177
#        55222
#        72344
#        86215
#        102096
#        111928
#        122936
#        141915
#
# Disc length: 2205 seconds
#
# Revision: 1
# Processed by: cddbd v1.5.2PL0 Copyright (c) Steve Scherf et al.
# Submitted via: ExactAudioCopy v0.99pb5
#
DISCID=90089b0a
DTITLE=Betsy Pecanins - Lara
DYEAR=2004
DGENRE=Blues
TTITLE0=Ven acá
TTITLE1=Noche de ronda
TTITLE2=Amor de mis amores
TTITLE3=Arráncame la vida
TTITLE4=Piensa en mí
TTITLE5=Rival
TTITLE6=Anoche te sentí
TTITLE7=Contraste
TTITLE8=Estoy pensando en ti
TTITLE9=Oración Caribe
EXTD=
EXTT0=
EXTT1=
EXTT2=
EXTT3=
EXTT4=
EXTT5=
EXTT6=
EXTT7=
EXTT8=
EXTT9=
PLAYORDER=
